# xmcd
#
# Track frame offsets: 
#        150
#        14498
#        27240
#        40578
#        54311
#        68251
#        79527
#        94939
#        126692
#        162222
#        191720
#        227182
#
# Disc length: 3595 seconds
#
# Revision: 0
# Processed by: cddbd v1.4PL0 Copyright (c) Steve Scherf et al.
# Submitted via: ExactAudioCopy v0.90b4
#
DISCID=940e090c
DTITLE=John Lee Hooker and Lightnin' Hopkins - Blue on Blues
DYEAR=2002
DGENRE=Blues
TTITLE0=West Texas Blues
TTITLE1=I Hate I Got Married
TTITLE2=Little Boy Blue
TTITLE3=Jailhouse Blues
TTITLE4=Katie Mae
TTITLE5=Pneumonia Blues
TTITLE6=Sally Mae
TTITLE7=Rock With Me
TTITLE8=Hobo Blues
TTITLE9=Should've Been Gone
TTITLE10=Hard Times
TTITLE11=I Hate The Day I Was Born
EXTD=
EXTT0=
EXTT1=
EXTT2=
EXTT3=
EXTT4=
EXTT5=
EXTT6=
EXTT7=
EXTT8=
EXTT9=
EXTT10=
EXTT11=
PLAYORDER=
